{"title":"Bloody.Bloody.mp.2012.WEBrip Xvid Ac3-ADTRG","uid":8021567,"size":1467521939,"categoryP":"video","categoryS":"movies","magnet":"?xt=urn:btih:cb9ff4d6a1dd46549f42db9b6688dcc7946a1842&amp;dn=Bloody.Bloody.mp.2012.WEBrip+Xvid+Ac3-ADTRG&amp;tr=udp%3A%2F%2Ftracker.openbittorrent.com%3A80&amp;tr=udp%3A%2F%2Fopen.demonii.com%3A1337&amp;tr=udp%3A%2F%2Ftracker.coppersurfer.tk%3A6969&amp;tr=udp%3A%2F%2Fexodus.desync.com%3A6969","seeders":2,"leechers":0,"uploader":"juggs99","files":4,"time":1358216458,"description":" &lt;a href=&quot;http://www.shotpix.com/images/18200117911429134356.jpg&quot; rel=&quot;nofollow&quot; target=&quot;_NEW&quot;&gt;http://www.shotpix.com/images/18200117911429134356.jpg&lt;/a&gt;\n\n\n &lt;a href=&quot;\nhttp://www.imdb.com/title/tt1663625/&quot; rel=&quot;nofollow&quot; target=&quot;_NEW&quot;&gt;\nhttp://www.imdb.com/title/tt1663625/&lt;/a&gt;\nGeneral\nComplete name                            :Xvid Ac3-ADTRG.avi\nSource                                   : WEBDL 720p  [Thanks]\nFormat                                   : AVI\nFormat/Info                              : Audio Video Interleave\nFile size                                : 1.35 GiB\nDuration                                 : 1h 30mn\nOverall bit rate                         : 2 136 Kbps\nWriting application                      : VirtualDubMod 1.5.10.2 (build 2540/release)\nWriting library                          : VirtualDubMod build 2540/release\n\nVideo\nID                                       : 0\nFormat                                   : MPEG-4 Visual\nFormat profile                           : Advanced Simple@L5\nFormat settings, BVOP                    : 2\nFormat settings, QPel                    : No\nFormat settings, GMC                     : No warppoints\nFormat settings, Matrix                  : Default (H.263)\nMuxing mode                              : Packed bitstream\nCodec ID                                 : XVID\nCodec ID/Hint                            : XviD\nDuration                                 : 1h 30mn\nBit rate                                 : 1 679 Kbps\nWidth                                    : 720 pixels\nHeight                                   : 400 pixels\nDisplay aspect ratio                     : 16:9\nFrame rate                               : 23.976 fps\nColor space                              : YUV\nChroma subsampling                       : 4:2:0\nBit depth                                : 8 bits\nScan type                                : Progressive\nCompression mode                         : Lossy\nBits/(Pixel*Frame)                       : 0.243\nStream size                              : 1.06 GiB (79%)\nWriting library                          : XviD 64\n\nAudio\nID                                       : 1\nFormat                                   : AC-3\nFormat/Info                              : Audio Coding 3\nMode extension                           : CM (complete main)\nCodec ID                                 : 2000\nDuration                                 : 1h 30mn\nBit rate mode                            : Constant\nBit rate                                 : 448 Kbps\nChannel(s)                               : 2 channels\nChannel positions                        : Front: L R\nSampling rate                            : 48.0 KHz\nBit depth                                : 16 bits\nCompression mode                         : Lossy\nStream size                              : 290 MiB (21%)\nAlignment                                : Split accross interleaves\nInterleave, duration                     : 42 ms (1.00 video frame)\nInterleave, preload duration             : 500 ms\n\n &lt;a href=&quot;\nhttp://www.shotpix.com/images/19497212436602760244.jpeg&quot; rel=&quot;nofollow&quot; target=&quot;_NEW&quot;&gt;\nhttp://www.shotpix.com/images/19497212436602760244.jpeg&lt;/a&gt; &lt;a href=&quot;\nhttp://www.shotpix.com/images/53076445020275357709.jpeg&quot; rel=&quot;nofollow&quot; target=&quot;_NEW&quot;&gt;\nhttp://www.shotpix.com/images/53076445020275357709.jpeg&lt;/a&gt; &lt;a href=&quot;\nhttp://www.shotpix.com/images/30311875078766144677.jpeg&quot; rel=&quot;nofollow&quot; target=&quot;_NEW&quot;&gt;\nhttp://www.shotpix.com/images/30311875078766144677.jpeg&lt;/a&gt; &lt;a href=&quot;\nhttp://www.shotpix.com/images/11380116266991452874.jpeg&quot; rel=&quot;nofollow&quot; target=&quot;_NEW&quot;&gt;\nhttp://www.shotpix.com/images/11380116266991452874.jpeg&lt;/a&gt;","torrent":{"xt":"urn:btih:cb9ff4d6a1dd46549f42db9b6688dcc7946a1842","amp;dn":"Bloody.Bloody.mp.2012.WEBrip+Xvid+Ac3-ADTRG","amp;tr":["udp%3A%2F%2Ftracker.openbittorrent.com%3A80","udp%3A%2F%2Fopen.demonii.com%3A1337","udp%3A%2F%2Ftracker.coppersurfer.tk%3A6969","udp%3A%2F%2Fexodus.desync.com%3A6969"],"infoHash":"cb9ff4d6a1dd46549f42db9b6688dcc7946a1842","infoHashBuffer":{"type":"Buffer","data":[203,159,244,214,161,221,70,84,159,66,219,155,102,136,220,199,148,106,24,66]},"announce":[],"urlList":[]}}